<?xml version="1.0" encoding="utf-8" standalone="no"?>
<!DOCTYPE svg PUBLIC "-//W3C//DTD SVG 1.1//EN"
  "http://www.w3.org/Graphics/SVG/1.1/DTD/svg11.dtd">
<!-- Created with matplotlib (https://matplotlib.org/) -->
<svg height="377.81pt" version="1.1" viewBox="0 0 620.65 377.81" width="620.65pt" xmlns="http://www.w3.org/2000/svg" xmlns:xlink="http://www.w3.org/1999/xlink">
 <metadata>
  <rdf:RDF xmlns:cc="http://creativecommons.org/ns#" xmlns:dc="http://purl.org/dc/elements/1.1/" xmlns:rdf="http://www.w3.org/1999/02/22-rdf-syntax-ns#">
   <cc:Work>
    <dc:type rdf:resource="http://purl.org/dc/dcmitype/StillImage"/>
    <dc:date>2021-02-16T20:05:42.047954</dc:date>
    <dc:format>image/svg+xml</dc:format>
    <dc:creator>
     <cc:Agent>
      <dc:title>Matplotlib v3.3.2, https://matplotlib.org/</dc:title>
     </cc:Agent>
    </dc:creator>
   </cc:Work>
  </rdf:RDF>
 </metadata>
 <defs>
  <style type="text/css">*{stroke-linecap:butt;stroke-linejoin:round;}</style>
 </defs>
 <g id="figure_1">
  <g id="patch_1">
   <path d="M 0 377.81 
L 620.65 377.81 
L 620.65 0 
L 0 0 
z
" style="fill:none;"/>
  </g>
  <g id="axes_1">
   <g id="patch_2">
    <path d="M 47.95 336.7975 
L 605.95 336.7975 
L 605.95 10.6375 
L 47.95 10.6375 
z
" style="fill:#ffffff;"/>
   </g>
   <g id="PathCollection_1">
    <defs>
     <path d="M 0 5 
C 1.326016 5 2.597899 4.473168 3.535534 3.535534 
C 4.473168 2.597899 5 1.326016 5 0 
C 5 -1.326016 4.473168 -2.597899 3.535534 -3.535534 
C 2.597899 -4.473168 1.326016 -5 0 -5 
C -1.326016 -5 -2.597899 -4.473168 -3.535534 -3.535534 
C -4.473168 -2.597899 -5 -1.326016 -5 0 
C -5 1.326016 -4.473168 2.597899 -3.535534 3.535534 
C -2.597899 4.473168 -1.326016 5 0 5 
z
" id="m1d96c9e22c" style="stroke:#1f77b4;"/>
    </defs>
    <g clip-path="url(#p4d4606cb93)">
     <use style="fill:#1f77b4;stroke:#1f77b4;" x="548.471394" xlink:href="#m1d96c9e22c" y="73.174296"/>
    </g>
   </g>
   <g id="matplotlib.axis_1">
    <g id="xtick_1">
     <g id="line2d_1">
      <defs>
       <path d="M 0 0 
L 0 3.5 
" id="m338c45befb" style="stroke:#000000;stroke-width:0.8;"/>
      </defs>
      <g>
       <use style="stroke:#000000;stroke-width:0.8;" x="47.95" xlink:href="#m338c45befb" y="336.7975"/>
      </g>
     </g>
     <g id="text_1">
      <!-- 0.0 -->
      <g transform="translate(40.45 350.6725)scale(0.1 -0.1)">
       <defs>
        <path d="M 3.125 29.296875 
Q 3.90625 50 6.4375 56.046875 
Q 8.984375 62.109375 13.671875 66.015625 
Q 18.359375 69.921875 25.1875 69.921875 
Q 32.03125 69.921875 37.109375 64.25 
Q 42.1875 58.59375 43.75 50 
Q 45.3125 41.40625 44.71875 30.265625 
Q 44.140625 19.140625 40.8125 12.109375 
Q 37.5 5.078125 30.859375 2.34375 
Q 24.21875 -0.390625 17.578125 2.921875 
Q 10.9375 6.25 8.203125 11.71875 
Q 5.46875 17.1875 4.296875 23.234375 
Q 3.125 29.296875 3.90625 50 
z
M 12.890625 52.734375 
Q 10.546875 31.25 12.5 22.84375 
Q 14.453125 14.453125 18.9375 10.9375 
Q 23.4375 7.421875 28.125 9.5625 
Q 32.8125 11.71875 34.953125 18.15625 
Q 37.109375 24.609375 37.109375 32.21875 
Q 37.109375 39.84375 36.515625 46.09375 
Q 35.9375 52.34375 33 57.421875 
Q 30.078125 62.5 25.1875 62.6875 
Q 20.3125 62.890625 16.59375 57.8125 
Q 12.890625 52.734375 10.546875 31.25 
z
" id="SimHei-48"/>
        <path d="M 16.796875 1.953125 
L 7.8125 1.953125 
L 7.8125 10.546875 
L 16.796875 10.546875 
z
" id="SimHei-46"/>
       </defs>
       <use xlink:href="#SimHei-48"/>
       <use x="50" xlink:href="#SimHei-46"/>
       <use x="100" xlink:href="#SimHei-48"/>
      </g>
     </g>
    </g>
    <g id="xtick_2">
     <g id="line2d_2">
      <g>
       <use style="stroke:#000000;stroke-width:0.8;" x="117.7" xlink:href="#m338c45befb" y="336.7975"/>
      </g>
     </g>
     <g id="text_2">
      <!-- 0.2 -->
      <g transform="translate(110.2 350.6725)scale(0.1 -0.1)">
       <defs>
        <path d="M 4.6875 3.90625 
Q 5.078125 9.765625 10.15625 14.453125 
Q 15.234375 19.140625 23.046875 29.09375 
Q 30.859375 39.0625 33.203125 44.53125 
Q 35.546875 50 34.953125 53.90625 
Q 34.375 57.8125 31.25 60.34375 
Q 28.125 62.890625 24.015625 62.5 
Q 19.921875 62.109375 16.203125 59.375 
Q 12.5 56.640625 10.546875 51.171875 
L 3.125 52.34375 
Q 6.25 61.328125 11.125 65.421875 
Q 16.015625 69.53125 22.65625 69.921875 
Q 26.5625 70.3125 29.6875 69.71875 
Q 32.8125 69.140625 36.125 66.984375 
Q 39.453125 64.84375 41.59375 60.546875 
Q 43.75 56.25 43.15625 50.1875 
Q 42.578125 44.140625 37.109375 35.734375 
Q 31.640625 27.34375 16.015625 9.375 
L 44.140625 9.375 
L 44.140625 2.34375 
L 4.6875 2.34375 
z
" id="SimHei-50"/>
       </defs>
       <use xlink:href="#SimHei-48"/>
       <use x="50" xlink:href="#SimHei-46"/>
       <use x="100" xlink:href="#SimHei-50"/>
      </g>
     </g>
    </g>
    <g id="xtick_3">
     <g id="line2d_3">
      <g>
       <use style="stroke:#000000;stroke-width:0.8;" x="187.45" xlink:href="#m338c45befb" y="336.7975"/>
      </g>
     </g>
     <g id="text_3">
      <!-- 0.4 -->
      <g transform="translate(179.95 350.6725)scale(0.1 -0.1)">
       <defs>
        <path d="M 31.25 17.1875 
L 1.171875 17.1875 
L 1.171875 23.828125 
L 32.8125 69.53125 
L 38.671875 69.53125 
L 38.671875 23.828125 
L 48.046875 23.828125 
L 48.046875 17.1875 
L 38.671875 17.1875 
L 38.671875 2.34375 
L 31.25 2.34375 
z
M 31.25 23.828125 
L 31.25 54.6875 
L 9.375 23.828125 
z
" id="SimHei-52"/>
       </defs>
       <use xlink:href="#SimHei-48"/>
       <use x="50" xlink:href="#SimHei-46"/>
       <use x="100" xlink:href="#SimHei-52"/>
      </g>
     </g>
    </g>
    <g id="xtick_4">
     <g id="line2d_4">
      <g>
       <use style="stroke:#000000;stroke-width:0.8;" x="257.2" xlink:href="#m338c45befb" y="336.7975"/>
      </g>
     </g>
     <g id="text_4">
      <!-- 0.6 -->
      <g transform="translate(249.7 350.6725)scale(0.1 -0.1)">
       <defs>
        <path d="M 3.515625 19.53125 
Q 4.296875 30.859375 6.046875 34.765625 
Q 7.8125 38.671875 11.328125 44.53125 
L 27.34375 69.53125 
L 36.328125 69.53125 
L 19.921875 43.75 
Q 30.46875 46.484375 36.71875 42.96875 
Q 42.96875 39.453125 45.109375 34.953125 
Q 47.265625 30.46875 47.453125 25.1875 
Q 47.65625 19.921875 45.890625 14.84375 
Q 44.140625 9.765625 39.640625 5.65625 
Q 35.15625 1.5625 27.140625 1.171875 
Q 19.140625 0.78125 13.46875 4.09375 
Q 7.8125 7.421875 5.65625 13.46875 
Q 3.515625 19.53125 4.296875 30.859375 
z
M 12.5 16.015625 
Q 19.53125 8.59375 25.390625 8.203125 
Q 31.25 7.8125 35.15625 12.109375 
Q 39.0625 16.40625 39.0625 24.609375 
Q 39.0625 32.8125 34.171875 35.9375 
Q 29.296875 39.0625 23.234375 38.28125 
Q 17.1875 37.5 14.453125 32.421875 
Q 11.71875 27.34375 12.109375 21.671875 
Q 12.5 16.015625 19.53125 8.59375 
z
" id="SimHei-54"/>
       </defs>
       <use xlink:href="#SimHei-48"/>
       <use x="50" xlink:href="#SimHei-46"/>
       <use x="100" xlink:href="#SimHei-54"/>
      </g>
     </g>
    </g>
    <g id="xtick_5">
     <g id="line2d_5">
      <g>
       <use style="stroke:#000000;stroke-width:0.8;" x="326.95" xlink:href="#m338c45befb" y="336.7975"/>
      </g>
     </g>
     <g id="text_5">
      <!-- 0.8 -->
      <g transform="translate(319.45 350.6725)scale(0.1 -0.1)">
       <defs>
        <path d="M 2.734375 16.796875 
Q 2.734375 26.171875 5.078125 30.65625 
Q 7.421875 35.15625 12.890625 37.890625 
Q 8.203125 40.625 6.640625 43.9375 
Q 5.078125 47.265625 4.875 51.5625 
Q 4.6875 55.859375 6.046875 58.984375 
Q 7.421875 62.109375 10.15625 64.84375 
Q 12.890625 67.578125 16.203125 68.546875 
Q 19.53125 69.53125 23.4375 69.53125 
Q 27.34375 69.53125 30.46875 68.75 
Q 33.59375 67.96875 37.109375 65.421875 
Q 40.625 62.890625 42.1875 58.203125 
Q 43.75 53.515625 41.984375 47.265625 
Q 40.234375 41.015625 32.8125 37.5 
Q 39.453125 35.546875 42.1875 31.4375 
Q 44.921875 27.34375 44.921875 21.484375 
Q 44.921875 15.625 43.15625 12.109375 
Q 41.40625 8.59375 39.25 6.25 
Q 37.109375 3.90625 33.390625 2.53125 
Q 29.6875 1.171875 24.015625 1.171875 
Q 18.359375 1.171875 14.25 2.53125 
Q 10.15625 3.90625 7.421875 6.640625 
Q 4.6875 9.375 3.703125 13.078125 
Q 2.734375 16.796875 2.734375 26.171875 
z
M 10.9375 26.5625 
Q 10.546875 17.1875 12.296875 13.671875 
Q 14.0625 10.15625 18.75 9.171875 
Q 23.4375 8.203125 28.515625 9.375 
Q 33.59375 10.546875 35.546875 14.84375 
Q 37.5 19.140625 36.90625 23.4375 
Q 36.328125 27.734375 32.03125 30.65625 
Q 27.734375 33.59375 22.65625 33.203125 
Q 17.578125 32.8125 14.25 29.6875 
Q 10.9375 26.5625 10.546875 17.1875 
z
M 12.109375 56.25 
Q 12.109375 48.4375 14.84375 44.921875 
Q 17.578125 41.40625 23.4375 41.40625 
Q 29.296875 41.40625 32.21875 44.921875 
Q 35.15625 48.4375 34.953125 53.3125 
Q 34.765625 58.203125 31.4375 60.546875 
Q 28.125 62.890625 22.453125 62.5 
Q 16.796875 62.109375 14.453125 59.171875 
Q 12.109375 56.25 12.109375 48.4375 
z
" id="SimHei-56"/>
       </defs>
       <use xlink:href="#SimHei-48"/>
       <use x="50" xlink:href="#SimHei-46"/>
       <use x="100" xlink:href="#SimHei-56"/>
      </g>
     </g>
    </g>
    <g id="xtick_6">
     <g id="line2d_6">
      <g>
       <use style="stroke:#000000;stroke-width:0.8;" x="396.7" xlink:href="#m338c45befb" y="336.7975"/>
      </g>
     </g>
     <g id="text_6">
      <!-- 1.0 -->
      <g transform="translate(389.2 350.6725)scale(0.1 -0.1)">
       <defs>
        <path d="M 21.875 56.25 
Q 16.796875 51.171875 8.984375 46.484375 
L 8.984375 53.90625 
Q 18.75 60.546875 25 69.53125 
L 29.6875 69.53125 
L 29.6875 2.34375 
L 21.875 2.34375 
z
" id="SimHei-49"/>
       </defs>
       <use xlink:href="#SimHei-49"/>
       <use x="50" xlink:href="#SimHei-46"/>
       <use x="100" xlink:href="#SimHei-48"/>
      </g>
     </g>
    </g>
    <g id="xtick_7">
     <g id="line2d_7">
      <g>
       <use style="stroke:#000000;stroke-width:0.8;" x="466.45" xlink:href="#m338c45befb" y="336.7975"/>
      </g>
     </g>
     <g id="text_7">
      <!-- 1.2 -->
      <g transform="translate(458.95 350.6725)scale(0.1 -0.1)">
       <use xlink:href="#SimHei-49"/>
       <use x="50" xlink:href="#SimHei-46"/>
       <use x="100" xlink:href="#SimHei-50"/>
      </g>
     </g>
    </g>
    <g id="xtick_8">
     <g id="line2d_8">
      <g>
       <use style="stroke:#000000;stroke-width:0.8;" x="536.2" xlink:href="#m338c45befb" y="336.7975"/>
      </g>
     </g>
     <g id="text_8">
      <!-- 1.4 -->
      <g transform="translate(528.7 350.6725)scale(0.1 -0.1)">
       <use xlink:href="#SimHei-49"/>
       <use x="50" xlink:href="#SimHei-46"/>
       <use x="100" xlink:href="#SimHei-52"/>
      </g>
     </g>
    </g>
    <g id="xtick_9">
     <g id="line2d_9">
      <g>
       <use style="stroke:#000000;stroke-width:0.8;" x="605.95" xlink:href="#m338c45befb" y="336.7975"/>
      </g>
     </g>
     <g id="text_9">
      <!-- 1.6 -->
      <g transform="translate(598.45 350.6725)scale(0.1 -0.1)">
       <use xlink:href="#SimHei-49"/>
       <use x="50" xlink:href="#SimHei-46"/>
       <use x="100" xlink:href="#SimHei-54"/>
      </g>
     </g>
    </g>
    <g id="text_10">
     <!-- 机会最终得分/威胁最终得分 -->
     <g transform="translate(226.95 368.61)scale(0.16 -0.16)">
      <defs>
       <path d="M 79.6875 74.609375 
Q 79.296875 63.671875 79.296875 55.859375 
L 79.296875 5.078125 
Q 79.296875 0 81.640625 -0.390625 
Q 83.984375 -0.78125 85.546875 -0.578125 
Q 87.109375 -0.390625 87.6875 2.140625 
Q 88.28125 4.6875 88.28125 9.765625 
Q 91.796875 7.8125 96.484375 6.640625 
Q 94.921875 -1.5625 93.359375 -4.296875 
Q 91.796875 -7.03125 88.28125 -7.03125 
L 80.078125 -7.03125 
Q 75.390625 -7.03125 73.234375 -4.875 
Q 71.09375 -2.734375 71.484375 3.90625 
L 71.484375 67.96875 
L 56.640625 67.96875 
Q 56.640625 45.703125 56.046875 33.390625 
Q 55.46875 21.09375 52.53125 11.125 
Q 49.609375 1.171875 41.015625 -8.984375 
Q 39.0625 -6.640625 33.984375 -2.734375 
Q 39.453125 1.5625 42.765625 7.8125 
Q 46.09375 14.0625 47.265625 20.703125 
Q 48.4375 27.34375 48.828125 34.765625 
Q 49.21875 42.1875 49.21875 53.515625 
Q 49.21875 65.234375 48.828125 74.609375 
L 79.6875 74.609375 
z
M 33.59375 42.578125 
Q 39.84375 33.984375 42.96875 29.296875 
Q 40.234375 26.953125 36.328125 24.21875 
Q 33.984375 29.296875 28.125 37.890625 
L 28.125 9.375 
Q 28.125 1.5625 28.515625 -8.203125 
L 19.921875 -8.203125 
Q 20.3125 1.5625 20.3125 9.375 
L 20.3125 34.375 
Q 18.359375 28.515625 16.015625 23.234375 
Q 13.671875 17.96875 9.375 11.328125 
Q 5.859375 15.234375 3.125 17.578125 
Q 6.25 21.09375 11.328125 31.25 
Q 16.40625 41.40625 19.140625 53.90625 
L 16.796875 53.90625 
Q 11.328125 53.90625 5.859375 53.125 
L 5.859375 60.546875 
Q 11.328125 60.15625 16.40625 60.15625 
L 20.3125 60.15625 
L 20.3125 67.96875 
Q 20.3125 74.21875 19.921875 79.6875 
L 28.90625 79.6875 
Q 28.125 75.78125 28.125 67.96875 
L 28.125 60.15625 
L 32.421875 60.15625 
Q 36.71875 60.15625 42.1875 60.546875 
L 42.1875 53.515625 
Q 33.59375 53.90625 28.125 53.90625 
L 28.125 38.28125 
Q 30.46875 40.234375 33.59375 42.578125 
z
" id="SimHei-26426"/>
       <path d="M 50 18.75 
Q 47.265625 16.796875 28.515625 0.78125 
Q 54.296875 1.5625 68.359375 2.34375 
Q 64.84375 6.25 57.8125 12.5 
Q 60.546875 14.84375 63.28125 17.578125 
Q 68.75 12.5 73.828125 7.609375 
Q 78.90625 2.734375 85.546875 -4.296875 
Q 82.8125 -6.640625 78.90625 -10.15625 
Q 75.390625 -5.078125 73.046875 -3.125 
Q 64.0625 -3.515625 43.9375 -4.6875 
Q 23.828125 -5.859375 17.96875 -7.421875 
Q 16.015625 -2.34375 14.84375 0.390625 
Q 21.09375 2.34375 29.6875 10.34375 
Q 38.28125 18.359375 41.796875 23.4375 
L 30.46875 23.4375 
Q 19.921875 23.4375 10.9375 23.046875 
L 10.9375 29.6875 
Q 20.3125 29.296875 30.078125 29.296875 
L 69.140625 29.296875 
Q 78.90625 29.296875 88.28125 29.6875 
L 88.28125 23.046875 
Q 78.90625 23.4375 67.578125 23.4375 
L 44.140625 23.4375 
Q 47.265625 20.3125 50 18.75 
z
M 54.296875 75 
Q 67.96875 55.46875 95.703125 45.703125 
Q 92.1875 42.578125 90.234375 38.671875 
Q 63.671875 50.78125 50 69.921875 
Q 31.640625 49.21875 9.765625 36.71875 
Q 5.859375 42.1875 3.125 43.359375 
Q 17.578125 48.4375 30.65625 60.15625 
Q 43.75 71.875 48.4375 81.640625 
Q 51.953125 79.296875 56.640625 77.34375 
L 54.296875 75 
z
M 57.03125 47.265625 
Q 65.625 47.265625 71.09375 47.65625 
L 71.09375 40.625 
Q 65.234375 41.015625 57.03125 41.015625 
L 40.234375 41.015625 
Q 32.8125 41.015625 27.734375 40.625 
L 27.734375 47.65625 
Q 32.8125 47.265625 39.84375 47.265625 
z
" id="SimHei-20250"/>
       <path d="M 7.421875 4.296875 
Q 10.546875 4.6875 17.1875 5.46875 
L 17.1875 38.28125 
Q 12.109375 38.28125 6.640625 37.890625 
L 6.640625 44.53125 
Q 12.109375 44.140625 17.578125 44.140625 
L 78.515625 44.140625 
Q 85.546875 44.140625 92.1875 44.53125 
L 92.1875 37.890625 
Q 85.546875 38.28125 78.515625 38.28125 
L 47.65625 38.28125 
L 47.65625 10.546875 
L 53.125 12.109375 
Q 53.125 8.59375 53.515625 6.25 
Q 50.390625 5.46875 47.65625 5.078125 
Q 47.65625 -1.953125 48.046875 -8.59375 
L 40.625 -8.59375 
Q 41.015625 -1.953125 41.015625 3.90625 
Q 36.71875 3.125 28.3125 1.359375 
Q 19.921875 -0.390625 10.15625 -2.734375 
Q 8.984375 1.5625 7.421875 4.296875 
z
M 79.6875 76.953125 
Q 79.296875 71.875 79.296875 67.578125 
L 79.296875 60.546875 
Q 79.296875 56.25 79.6875 50.78125 
L 19.921875 50.78125 
Q 20.3125 56.25 20.3125 60.546875 
L 20.3125 67.578125 
Q 20.3125 71.875 19.921875 76.953125 
L 79.6875 76.953125 
z
M 51.5625 32.03125 
Q 58.59375 31.640625 64.453125 31.640625 
L 83.984375 31.640625 
Q 79.6875 15.234375 73.828125 6.25 
Q 83.59375 0 92.578125 -1.5625 
Q 89.0625 -4.296875 88.28125 -7.8125 
Q 78.515625 -4.6875 69.921875 2.34375 
Q 64.84375 -3.125 56.25 -8.984375 
Q 54.6875 -6.640625 50.78125 -4.296875 
Q 58.984375 -1.5625 64.84375 5.46875 
Q 58.203125 12.109375 54.6875 26.171875 
L 51.5625 26.171875 
z
M 71.875 66.40625 
L 71.875 71.875 
L 27.34375 71.875 
L 27.34375 66.40625 
z
M 71.875 55.859375 
L 71.875 60.9375 
L 27.34375 60.9375 
L 27.34375 55.859375 
z
M 60.9375 26.171875 
Q 62.5 16.796875 68.75 9.765625 
Q 73.4375 16.40625 75.78125 26.171875 
L 60.9375 26.171875 
z
M 41.015625 19.53125 
L 41.015625 26.171875 
L 23.828125 26.171875 
L 23.828125 19.53125 
z
M 41.015625 8.984375 
L 41.015625 14.453125 
L 23.828125 14.453125 
L 23.828125 6.640625 
z
M 41.015625 31.640625 
L 41.015625 38.28125 
L 23.828125 38.28125 
L 23.828125 31.640625 
z
" id="SimHei-26368"/>
       <path d="M 63.671875 77.34375 
Q 61.71875 75 58.59375 68.75 
L 87.5 68.75 
Q 83.984375 59.765625 80.65625 53.90625 
Q 77.34375 48.046875 71.484375 41.015625 
Q 76.5625 36.71875 83.59375 32.8125 
Q 90.625 28.90625 94.921875 27.734375 
Q 91.40625 24.609375 89.453125 20.703125 
Q 77.34375 26.5625 66.40625 36.328125 
Q 62.5 32.8125 56.046875 28.703125 
Q 49.609375 24.609375 41.796875 20.3125 
Q 40.234375 24.21875 36.328125 26.953125 
Q 44.53125 29.6875 51.5625 33.78125 
Q 58.59375 37.890625 61.71875 41.015625 
Q 55.859375 48.4375 52.34375 56.640625 
Q 47.65625 48.4375 43.75 42.96875 
Q 39.84375 46.09375 37.109375 47.265625 
Q 41.40625 51.953125 44.71875 57.21875 
Q 48.046875 62.5 50.78125 68.359375 
Q 53.515625 74.21875 55.46875 81.25 
Q 60.15625 78.515625 63.671875 77.34375 
z
M 34.765625 18.75 
Q 32.421875 18.359375 24.796875 17.578125 
Q 17.1875 16.796875 8.59375 14.84375 
Q 7.421875 18.359375 5.46875 23.046875 
Q 9.375 24.21875 13.46875 29.6875 
Q 17.578125 35.15625 21.484375 42.1875 
Q 19.140625 42.1875 14.84375 41.40625 
Q 10.546875 40.625 7.421875 39.0625 
Q 5.859375 43.75 3.515625 47.265625 
Q 8.59375 51.171875 12.890625 60.546875 
Q 17.1875 69.921875 19.921875 79.296875 
Q 24.609375 76.5625 28.125 75.390625 
Q 25.78125 71.875 21.875 64.453125 
Q 17.96875 57.03125 12.890625 47.265625 
Q 15.625 47.265625 25 48.046875 
Q 29.6875 55.46875 32.421875 62.109375 
Q 37.5 58.59375 40.234375 57.421875 
Q 36.328125 52.34375 30.65625 43.75 
Q 25 35.15625 16.796875 23.828125 
Q 20.3125 23.828125 34.375 25.78125 
Q 34.375 21.875 34.765625 18.75 
z
M 50.78125 11.328125 
Q 76.5625 2.34375 84.765625 -1.953125 
Q 83.203125 -5.078125 81.25 -9.765625 
Q 70.703125 -3.515625 63.28125 -0.96875 
Q 55.859375 1.5625 47.265625 3.90625 
Q 49.609375 7.8125 50.78125 11.328125 
z
M 36.71875 1.5625 
Q 29.6875 0.390625 21.671875 -1.359375 
Q 13.671875 -3.125 7.421875 -5.859375 
Q 6.640625 -1.953125 4.296875 2.734375 
Q 16.015625 3.90625 37.109375 8.984375 
Q 36.71875 5.46875 36.71875 1.5625 
z
M 58.203125 27.34375 
Q 65.234375 24.609375 71.09375 22.453125 
Q 76.953125 20.3125 82.421875 17.96875 
Q 80.46875 15.234375 78.90625 10.9375 
Q 74.21875 13.28125 68.75 15.421875 
Q 63.28125 17.578125 55.078125 19.921875 
Q 57.421875 23.4375 58.203125 27.34375 
z
M 66.796875 46.09375 
Q 73.046875 52.734375 76.953125 62.5 
L 57.03125 62.5 
Q 61.328125 51.953125 66.796875 46.09375 
z
" id="SimHei-32456"/>
       <path d="M 87.109375 77.734375 
Q 86.71875 72.265625 86.71875 61.71875 
Q 86.71875 51.5625 87.109375 45.3125 
L 41.796875 45.3125 
Q 42.1875 51.5625 42.1875 61.71875 
Q 42.1875 71.875 41.796875 77.734375 
L 87.109375 77.734375 
z
M 30.46875 25.390625 
Q 37.5 25 46.09375 25 
L 74.609375 25 
L 74.609375 32.8125 
L 48.828125 32.8125 
Q 42.1875 32.8125 36.328125 32.421875 
L 36.328125 39.0625 
Q 42.1875 38.671875 48.828125 38.671875 
L 78.125 38.671875 
Q 86.328125 38.671875 92.1875 39.0625 
L 92.1875 32.421875 
Q 87.109375 32.8125 81.640625 32.8125 
L 81.640625 25 
Q 88.671875 25 94.921875 25.390625 
L 94.921875 18.359375 
Q 89.0625 18.75 81.640625 18.75 
L 81.640625 3.90625 
Q 82.03125 -4.296875 77.34375 -6.25 
Q 72.65625 -8.203125 65.234375 -9.375 
Q 64.453125 -5.46875 62.109375 -0.390625 
Q 71.09375 -0.390625 73.046875 0.96875 
Q 75 2.34375 74.609375 6.640625 
L 74.609375 18.75 
L 46.09375 18.75 
Q 37.5 18.75 30.46875 18.359375 
z
M 17.96875 -8.59375 
Q 18.359375 1.953125 18.359375 8.984375 
L 18.359375 32.421875 
Q 14.84375 28.515625 9.765625 23.4375 
Q 7.421875 27.34375 4.296875 30.078125 
Q 12.109375 35.9375 17.96875 43.359375 
Q 23.828125 50.78125 28.125 58.984375 
Q 31.25 56.25 35.546875 53.90625 
Q 32.03125 49.21875 25.390625 40.234375 
L 25.390625 8.984375 
Q 25.390625 1.953125 25.78125 -8.59375 
z
M 33.59375 76.171875 
Q 22.65625 62.5 12.890625 52.734375 
Q 10.546875 55.859375 7.421875 58.59375 
Q 18.359375 67.578125 26.5625 81.25 
Q 29.6875 78.515625 33.59375 76.171875 
z
M 79.6875 51.5625 
L 79.6875 58.984375 
L 49.21875 58.984375 
L 49.21875 51.5625 
z
M 79.6875 64.84375 
L 79.6875 71.875 
L 49.21875 71.875 
L 49.21875 64.84375 
z
M 46.09375 16.40625 
Q 51.953125 8.203125 55.46875 2.734375 
Q 52.734375 1.171875 48.4375 -1.953125 
Q 46.09375 4.296875 40.234375 11.71875 
Q 43.75 14.0625 46.09375 16.40625 
z
" id="SimHei-24471"/>
       <path d="M 15.625 -10.15625 
Q 12.890625 -5.859375 8.984375 -3.515625 
Q 15.234375 -1.171875 20.3125 2.140625 
Q 25.390625 5.46875 29.296875 10.34375 
Q 33.203125 15.234375 35.15625 21.09375 
Q 37.109375 26.953125 37.890625 35.546875 
Q 28.90625 35.546875 23.4375 35.15625 
L 23.4375 43.359375 
Q 29.6875 42.96875 39.453125 42.96875 
L 78.515625 42.96875 
Q 77.734375 37.109375 77.34375 32.8125 
L 74.21875 3.90625 
Q 73.4375 -3.125 67.96875 -5.46875 
Q 62.5 -7.8125 55.859375 -8.203125 
Q 55.46875 -4.296875 51.953125 0.78125 
Q 60.15625 0.390625 63.078125 1.359375 
Q 66.015625 2.34375 66.796875 8.203125 
L 69.53125 35.546875 
L 46.09375 35.546875 
Q 44.921875 25.390625 42.765625 18.546875 
Q 40.625 11.71875 36.71875 6.640625 
Q 32.8125 1.5625 27.34375 -2.734375 
Q 21.875 -7.03125 15.625 -10.15625 
z
M 61.71875 80.859375 
Q 64.453125 72.65625 72.84375 62.109375 
Q 81.25 51.5625 96.484375 43.75 
Q 93.359375 41.015625 90.234375 35.546875 
Q 83.203125 40.625 77.921875 45.109375 
Q 72.65625 49.609375 69.140625 53.515625 
Q 65.625 57.421875 61.328125 64.640625 
Q 57.03125 71.875 54.296875 78.125 
Q 58.59375 79.296875 61.71875 80.859375 
z
M 42.1875 75.390625 
Q 38.671875 69.140625 36.328125 64.453125 
Q 33.984375 59.765625 31.640625 56.046875 
Q 29.296875 52.34375 24.609375 46.09375 
Q 19.921875 39.84375 13.28125 33.203125 
Q 9.765625 36.71875 6.25 38.671875 
Q 14.0625 45.703125 18.546875 51.5625 
Q 23.046875 57.421875 27.140625 64.25 
Q 31.25 71.09375 34.375 79.296875 
Q 37.5 76.953125 42.1875 75.390625 
z
" id="SimHei-20998"/>
       <path d="M 46.875 71.09375 
L 5.46875 -2.734375 
L 1.5625 -0.390625 
L 42.96875 73.4375 
z
" id="SimHei-47"/>
       <path d="M 10.9375 -8.203125 
Q 8.203125 -5.46875 3.90625 -4.296875 
Q 7.421875 1.5625 9.171875 7.8125 
Q 10.9375 14.0625 12.109375 20.3125 
Q 13.28125 26.5625 13.671875 38.078125 
Q 14.0625 49.609375 13.671875 65.625 
L 58.984375 65.625 
Q 58.59375 77.34375 57.8125 81.640625 
Q 62.109375 80.859375 66.796875 80.859375 
Q 66.40625 75.78125 66.796875 65.625 
L 77.34375 65.625 
Q 83.984375 65.625 92.1875 66.015625 
L 92.1875 58.59375 
Q 84.375 58.984375 77.34375 58.984375 
L 67.1875 58.984375 
Q 67.96875 50.390625 68.9375 43.546875 
Q 69.921875 36.71875 73.046875 24.21875 
Q 75 28.90625 77.140625 35.9375 
Q 79.296875 42.96875 80.46875 51.5625 
Q 84.765625 49.609375 90.625 48.4375 
Q 88.28125 45.3125 85.546875 37.890625 
Q 82.8125 30.46875 76.5625 15.234375 
Q 84.765625 -0.390625 86.90625 3.90625 
Q 89.0625 8.203125 89.84375 11.71875 
Q 92.96875 7.8125 96.875 6.25 
Q 92.578125 -5.859375 87.109375 -6.828125 
Q 81.640625 -7.8125 72.265625 7.8125 
Q 68.359375 2.34375 65.03125 -1.359375 
Q 61.71875 -5.078125 57.421875 -9.375 
Q 54.296875 -6.640625 50 -5.078125 
Q 54.6875 -1.5625 59.5625 3.515625 
Q 64.453125 8.59375 68.75 16.015625 
Q 64.0625 27.734375 62.296875 39.0625 
Q 60.546875 50.390625 59.765625 58.984375 
L 21.09375 58.984375 
L 21.09375 35.546875 
Q 19.53125 14.84375 16.796875 5.859375 
Q 14.0625 -3.125 10.9375 -8.203125 
z
M 23.046875 35.9375 
Q 27.734375 35.546875 34.375 35.546875 
Q 35.9375 40.625 36.71875 44.140625 
Q 33.203125 44.140625 25.390625 43.75 
L 25.390625 50.78125 
Q 32.8125 50.390625 42.1875 50.390625 
Q 51.5625 50.390625 57.421875 50.78125 
L 57.421875 43.75 
Q 51.171875 44.140625 44.53125 44.140625 
Q 42.96875 39.84375 41.796875 35.546875 
L 58.984375 35.546875 
Q 56.25 23.4375 51.953125 15.234375 
Q 55.859375 13.28125 60.15625 10.15625 
Q 57.8125 7.421875 55.859375 4.296875 
Q 52.34375 6.640625 48.046875 8.984375 
Q 42.1875 3.125 37.890625 0.390625 
Q 33.59375 -2.34375 27.34375 -5.46875 
Q 25 -2.34375 21.875 0.78125 
Q 27.734375 2.34375 32.421875 5.078125 
Q 37.109375 7.8125 41.40625 11.71875 
Q 32.8125 16.015625 26.953125 17.96875 
Q 29.6875 23.4375 32.03125 29.296875 
Q 27.734375 29.296875 23.046875 28.90625 
L 23.046875 35.9375 
z
M 45.3125 17.578125 
Q 48.4375 22.265625 49.609375 29.296875 
L 38.671875 29.296875 
Q 37.109375 25.390625 34.765625 21.09375 
z
M 80.078125 81.25 
Q 83.59375 76.5625 85.9375 72.65625 
Q 82.03125 71.09375 78.90625 68.75 
Q 76.171875 73.828125 73.4375 77.734375 
Q 76.5625 79.6875 80.078125 81.25 
z
" id="SimHei-23041"/>
       <path d="M 20.703125 0.390625 
Q 25 0 27.34375 0.1875 
Q 29.6875 0.390625 30.078125 5.078125 
L 30.078125 24.609375 
L 17.1875 24.609375 
Q 16.40625 15.234375 15.421875 9.953125 
Q 14.453125 4.6875 13.078125 0.1875 
Q 11.71875 -4.296875 9.765625 -8.59375 
Q 6.25 -5.46875 3.125 -4.296875 
Q 6.25 1.171875 8.390625 8.78125 
Q 10.546875 16.40625 11.328125 28.90625 
L 11.328125 62.5 
Q 11.328125 68.75 10.9375 74.609375 
L 37.109375 74.609375 
Q 36.71875 66.796875 36.71875 58.984375 
L 36.71875 0.390625 
Q 36.71875 -7.8125 22.65625 -8.59375 
Q 22.265625 -4.6875 20.703125 0.390625 
z
M 58.984375 66.40625 
Q 58.984375 71.484375 58.59375 79.296875 
Q 62.890625 78.515625 67.1875 78.515625 
Q 66.796875 76.171875 66.40625 71.28125 
Q 66.015625 66.40625 66.015625 58.59375 
L 84.375 58.59375 
Q 83.59375 52.734375 83.203125 45.3125 
L 81.25 0.390625 
Q 80.46875 -5.859375 76.953125 -7.03125 
Q 73.4375 -8.203125 67.1875 -9.375 
Q 65.625 -4.6875 63.671875 -1.171875 
Q 71.09375 -1.5625 72.65625 -1.359375 
Q 74.21875 -1.171875 74.609375 1.953125 
L 76.5625 52.34375 
L 65.625 52.34375 
Q 64.84375 42.578125 63.859375 34.375 
Q 62.890625 26.171875 60.734375 18.546875 
Q 58.59375 10.9375 55.078125 4.296875 
Q 51.5625 -2.34375 45.703125 -9.765625 
Q 42.578125 -7.03125 38.28125 -5.46875 
Q 44.53125 0.390625 48.4375 7.609375 
Q 52.34375 14.84375 54.484375 22.84375 
Q 56.640625 30.859375 57.421875 38.28125 
Q 58.203125 45.703125 58.59375 52.34375 
L 52.734375 52.34375 
Q 49.609375 52.34375 43.75 51.953125 
L 43.75 58.984375 
Q 51.953125 58.59375 53.125 58.59375 
L 58.984375 58.59375 
z
M 30.078125 52.734375 
L 30.078125 68.359375 
L 17.578125 68.359375 
L 17.578125 52.734375 
z
M 30.078125 30.859375 
L 30.078125 46.484375 
L 17.578125 46.484375 
L 17.578125 30.859375 
z
M 51.5625 41.796875 
Q 50.78125 39.453125 49.21875 32.21875 
Q 47.65625 25 44.53125 17.1875 
Q 40.625 18.75 37.890625 19.140625 
Q 41.40625 27.734375 42.375 32.03125 
Q 43.359375 36.328125 44.140625 43.359375 
Q 48.046875 42.578125 51.5625 41.796875 
z
M 90.625 43.75 
Q 91.796875 39.453125 93.359375 33.59375 
Q 94.921875 27.734375 96.09375 21.09375 
Q 92.1875 20.3125 89.453125 19.140625 
Q 88.28125 26.171875 87.109375 31.046875 
Q 85.9375 35.9375 84.375 41.796875 
Q 87.109375 42.1875 90.625 43.75 
z
" id="SimHei-32961"/>
      </defs>
      <use xlink:href="#SimHei-26426"/>
      <use x="100" xlink:href="#SimHei-20250"/>
      <use x="200" xlink:href="#SimHei-26368"/>
      <use x="300" xlink:href="#SimHei-32456"/>
      <use x="400" xlink:href="#SimHei-24471"/>
      <use x="500" xlink:href="#SimHei-20998"/>
      <use x="600" xlink:href="#SimHei-47"/>
      <use x="650" xlink:href="#SimHei-23041"/>
      <use x="750" xlink:href="#SimHei-32961"/>
      <use x="850" xlink:href="#SimHei-26368"/>
      <use x="950" xlink:href="#SimHei-32456"/>
      <use x="1050" xlink:href="#SimHei-24471"/>
      <use x="1150" xlink:href="#SimHei-20998"/>
     </g>
    </g>
   </g>
   <g id="matplotlib.axis_2">
    <g id="ytick_1">
     <g id="line2d_10">
      <defs>
       <path d="M 0 0 
L -3.5 0 
" id="m878b240259" style="stroke:#000000;stroke-width:0.8;"/>
      </defs>
      <g>
       <use style="stroke:#000000;stroke-width:0.8;" x="47.95" xlink:href="#m878b240259" y="336.7975"/>
      </g>
     </g>
     <g id="text_11">
      <!-- 0.0 -->
      <g transform="translate(25.95 340.235)scale(0.1 -0.1)">
       <use xlink:href="#SimHei-48"/>
       <use x="50" xlink:href="#SimHei-46"/>
       <use x="100" xlink:href="#SimHei-48"/>
      </g>
     </g>
    </g>
    <g id="ytick_2">
     <g id="line2d_11">
      <g>
       <use style="stroke:#000000;stroke-width:0.8;" x="47.95" xlink:href="#m878b240259" y="296.0275"/>
      </g>
     </g>
     <g id="text_12">
      <!-- 0.2 -->
      <g transform="translate(25.95 299.465)scale(0.1 -0.1)">
       <use xlink:href="#SimHei-48"/>
       <use x="50" xlink:href="#SimHei-46"/>
       <use x="100" xlink:href="#SimHei-50"/>
      </g>
     </g>
    </g>
    <g id="ytick_3">
     <g id="line2d_12">
      <g>
       <use style="stroke:#000000;stroke-width:0.8;" x="47.95" xlink:href="#m878b240259" y="255.2575"/>
      </g>
     </g>
     <g id="text_13">
      <!-- 0.4 -->
      <g transform="translate(25.95 258.695)scale(0.1 -0.1)">
       <use xlink:href="#SimHei-48"/>
       <use x="50" xlink:href="#SimHei-46"/>
       <use x="100" xlink:href="#SimHei-52"/>
      </g>
     </g>
    </g>
    <g id="ytick_4">
     <g id="line2d_13">
      <g>
       <use style="stroke:#000000;stroke-width:0.8;" x="47.95" xlink:href="#m878b240259" y="214.4875"/>
      </g>
     </g>
     <g id="text_14">
      <!-- 0.6 -->
      <g transform="translate(25.95 217.925)scale(0.1 -0.1)">
       <use xlink:href="#SimHei-48"/>
       <use x="50" xlink:href="#SimHei-46"/>
       <use x="100" xlink:href="#SimHei-54"/>
      </g>
     </g>
    </g>
    <g id="ytick_5">
     <g id="line2d_14">
      <g>
       <use style="stroke:#000000;stroke-width:0.8;" x="47.95" xlink:href="#m878b240259" y="173.7175"/>
      </g>
     </g>
     <g id="text_15">
      <!-- 0.8 -->
      <g transform="translate(25.95 177.155)scale(0.1 -0.1)">
       <use xlink:href="#SimHei-48"/>
       <use x="50" xlink:href="#SimHei-46"/>
       <use x="100" xlink:href="#SimHei-56"/>
      </g>
     </g>
    </g>
    <g id="ytick_6">
     <g id="line2d_15">
      <g>
       <use style="stroke:#000000;stroke-width:0.8;" x="47.95" xlink:href="#m878b240259" y="132.9475"/>
      </g>
     </g>
     <g id="text_16">
      <!-- 1.0 -->
      <g transform="translate(25.95 136.385)scale(0.1 -0.1)">
       <use xlink:href="#SimHei-49"/>
       <use x="50" xlink:href="#SimHei-46"/>
       <use x="100" xlink:href="#SimHei-48"/>
      </g>
     </g>
    </g>
    <g id="ytick_7">
     <g id="line2d_16">
      <g>
       <use style="stroke:#000000;stroke-width:0.8;" x="47.95" xlink:href="#m878b240259" y="92.1775"/>
      </g>
     </g>
     <g id="text_17">
      <!-- 1.2 -->
      <g transform="translate(25.95 95.615)scale(0.1 -0.1)">
       <use xlink:href="#SimHei-49"/>
       <use x="50" xlink:href="#SimHei-46"/>
       <use x="100" xlink:href="#SimHei-50"/>
      </g>
     </g>
    </g>
    <g id="ytick_8">
     <g id="line2d_17">
      <g>
       <use style="stroke:#000000;stroke-width:0.8;" x="47.95" xlink:href="#m878b240259" y="51.4075"/>
      </g>
     </g>
     <g id="text_18">
      <!-- 1.4 -->
      <g transform="translate(25.95 54.845)scale(0.1 -0.1)">
       <use xlink:href="#SimHei-49"/>
       <use x="50" xlink:href="#SimHei-46"/>
       <use x="100" xlink:href="#SimHei-52"/>
      </g>
     </g>
    </g>
    <g id="ytick_9">
     <g id="line2d_18">
      <g>
       <use style="stroke:#000000;stroke-width:0.8;" x="47.95" xlink:href="#m878b240259" y="10.6375"/>
      </g>
     </g>
     <g id="text_19">
      <!-- 1.6 -->
      <g transform="translate(25.95 14.075)scale(0.1 -0.1)">
       <use xlink:href="#SimHei-49"/>
       <use x="50" xlink:href="#SimHei-46"/>
       <use x="100" xlink:href="#SimHei-54"/>
      </g>
     </g>
    </g>
    <g id="text_20">
     <!-- 优势最终得分/劣势最终得分 -->
     <g transform="translate(19.95 273.7175)rotate(-90)scale(0.16 -0.16)">
      <defs>
       <path d="M 72.65625 5.46875 
Q 72.265625 1.5625 75.390625 0.78125 
Q 78.515625 0 81.25 0.1875 
Q 83.984375 0.390625 85.34375 1.953125 
Q 86.71875 3.515625 88.28125 12.5 
Q 91.015625 9.765625 96.875 8.203125 
Q 94.53125 -0.390625 92.375 -3.125 
Q 90.234375 -5.859375 85.546875 -6.25 
L 73.4375 -6.25 
Q 65.234375 -6.25 65.234375 3.125 
L 65.234375 47.65625 
L 60.15625 47.65625 
Q 58.203125 9.375 37.109375 -8.59375 
Q 34.375 -5.078125 29.296875 -3.515625 
Q 49.609375 10.546875 52.34375 47.65625 
L 45.3125 47.65625 
Q 36.71875 47.65625 30.859375 47.265625 
L 30.859375 54.296875 
Q 36.71875 53.90625 45.3125 53.90625 
L 52.734375 53.90625 
Q 52.734375 73.4375 52.34375 80.46875 
Q 55.078125 79.6875 61.328125 79.296875 
Q 60.15625 73.4375 60.15625 53.90625 
L 81.25 53.90625 
Q 85.546875 53.90625 92.578125 54.296875 
L 92.578125 47.265625 
Q 85.9375 47.65625 81.640625 47.65625 
L 72.65625 47.65625 
L 72.65625 5.46875 
z
M 3.125 37.109375 
Q 8.203125 42.1875 15.625 56.4375 
Q 23.046875 70.703125 25 81.25 
Q 28.90625 78.90625 34.765625 76.953125 
Q 31.25 73.4375 26.5625 59.765625 
L 26.5625 9.375 
Q 26.5625 -2.34375 26.953125 -8.203125 
L 18.75 -8.203125 
Q 19.140625 -2.734375 19.140625 8.984375 
L 19.140625 46.484375 
Q 14.0625 37.890625 8.59375 30.859375 
Q 6.640625 34.375 3.125 37.109375 
z
M 75.78125 78.515625 
Q 78.125 75 80.46875 71.671875 
Q 82.8125 68.359375 85.15625 65.625 
Q 82.03125 63.671875 78.515625 60.546875 
Q 76.171875 65.234375 69.53125 73.828125 
Q 72.265625 75.78125 75.78125 78.515625 
z
" id="SimHei-20248"/>
       <path d="M 42.1875 23.4375 
Q 42.578125 26.5625 42.578125 30.078125 
Q 48.046875 28.90625 51.171875 28.515625 
Q 50.390625 26.5625 50 23.4375 
L 83.203125 23.4375 
Q 82.8125 17.96875 81.828125 10.34375 
Q 80.859375 2.734375 79.296875 -0.96875 
Q 77.734375 -4.6875 74.015625 -5.859375 
Q 70.3125 -7.03125 59.765625 -8.203125 
Q 59.375 -4.296875 55.46875 0.390625 
Q 67.578125 -0.390625 69.921875 0.96875 
Q 72.265625 2.34375 73.046875 5.46875 
Q 73.828125 8.59375 74.609375 17.1875 
L 48.828125 17.1875 
Q 44.53125 5.078125 35.15625 -0.1875 
Q 25.78125 -5.46875 12.109375 -9.375 
Q 10.546875 -5.078125 6.25 -1.953125 
Q 16.40625 -0.78125 26.359375 3.515625 
Q 36.328125 7.8125 40.625 17.1875 
L 24.21875 17.1875 
Q 16.796875 17.1875 10.15625 16.796875 
L 10.15625 23.828125 
Q 16.796875 23.4375 24.21875 23.4375 
z
M 36.71875 35.15625 
Q 47.265625 39.0625 52.34375 47.65625 
Q 49.609375 49.609375 44.53125 51.953125 
Q 47.265625 54.296875 48.4375 57.421875 
L 54.6875 53.515625 
Q 55.46875 56.640625 56.25 63.671875 
Q 50.390625 63.671875 45.703125 62.890625 
L 44.921875 69.140625 
L 56.25 69.140625 
Q 56.25 76.5625 55.46875 81.25 
Q 58.984375 80.46875 64.453125 80.078125 
Q 63.28125 76.171875 63.28125 69.53125 
L 82.421875 69.921875 
Q 81.25 62.109375 80.859375 53.90625 
Q 80.46875 45.703125 82.21875 41.40625 
Q 83.984375 37.109375 85.734375 36.515625 
Q 87.5 35.9375 87.5 45.703125 
Q 90.625 42.578125 95.703125 41.796875 
Q 93.359375 32.421875 91.796875 30.078125 
Q 90.234375 27.734375 87.5 27.34375 
Q 84.765625 26.953125 79.875 31.25 
Q 75 35.546875 73.828125 43.75 
Q 72.65625 51.953125 73.828125 64.0625 
L 63.28125 63.671875 
Q 62.5 55.078125 61.71875 50 
Q 64.84375 48.046875 69.53125 45.3125 
Q 66.015625 42.578125 64.0625 39.84375 
Q 61.328125 42.1875 58.984375 43.75 
Q 53.125 36.328125 44.53125 30.46875 
Q 41.796875 33.203125 36.71875 35.15625 
z
M 39.453125 51.5625 
Q 33.203125 50 30.46875 49.609375 
L 30.46875 35.15625 
Q 30.078125 30.859375 25.96875 29.6875 
Q 21.875 28.515625 15.625 27.34375 
Q 15.234375 31.640625 12.5 35.9375 
Q 21.09375 35.546875 22.265625 36.328125 
Q 23.4375 37.109375 23.4375 41.015625 
L 23.4375 48.046875 
Q 13.671875 45.3125 7.03125 43.359375 
Q 5.859375 47.65625 3.515625 50.390625 
Q 10.546875 51.171875 23.4375 53.90625 
L 23.4375 62.890625 
Q 12.5 62.890625 6.640625 62.5 
L 6.640625 69.53125 
Q 12.5 69.140625 23.4375 69.140625 
Q 23.4375 76.171875 23.046875 80.46875 
L 31.640625 80.46875 
Q 30.46875 76.5625 30.46875 69.140625 
Q 34.375 69.140625 40.234375 69.53125 
L 40.234375 62.5 
Q 34.375 62.890625 30.46875 62.890625 
L 30.46875 55.46875 
Q 35.15625 56.25 39.84375 57.8125 
Q 39.453125 55.078125 39.453125 51.5625 
z
" id="SimHei-21183"/>
       <path d="M 50.78125 21.484375 
Q 48.4375 12.5 44.53125 7.421875 
Q 40.625 2.34375 33.203125 -2.140625 
Q 25.78125 -6.640625 12.890625 -10.9375 
Q 11.71875 -6.25 7.421875 -2.734375 
Q 23.4375 0 31.4375 5.65625 
Q 39.453125 11.328125 42.578125 21.484375 
L 31.640625 21.484375 
Q 19.53125 21.484375 13.28125 21.09375 
L 13.28125 28.90625 
Q 22.265625 28.515625 31.640625 28.515625 
L 44.140625 28.515625 
Q 44.921875 32.03125 44.921875 38.671875 
Q 48.046875 38.28125 55.078125 36.71875 
Q 53.125 32.8125 51.953125 28.515625 
L 86.71875 28.515625 
Q 85.546875 15.234375 85.15625 10.34375 
Q 84.765625 5.46875 83.78125 0 
Q 82.8125 -5.46875 77.34375 -6.828125 
Q 71.875 -8.203125 63.28125 -8.984375 
Q 63.28125 -3.90625 60.546875 1.171875 
Q 70.703125 0.78125 73.046875 1.171875 
Q 75.390625 1.5625 75.96875 4.484375 
Q 76.5625 7.421875 76.953125 11.90625 
Q 77.34375 16.40625 77.34375 21.484375 
z
M 52.734375 80.859375 
Q 51.953125 76.953125 51.953125 69.53125 
L 51.953125 50 
Q 57.03125 52.34375 60.734375 55.265625 
Q 64.453125 58.203125 69.140625 63.28125 
Q 72.65625 59.375 76.171875 57.03125 
Q 71.09375 53.125 65.8125 49.40625 
Q 60.546875 45.703125 55.46875 43.359375 
Q 50.390625 41.015625 42.96875 38.859375 
Q 35.546875 36.71875 27.734375 35.34375 
Q 19.921875 33.984375 10.15625 32.421875 
Q 9.375 36.71875 5.46875 40.625 
Q 21.875 41.796875 30.65625 43.546875 
Q 39.453125 45.3125 44.140625 46.875 
L 44.140625 69.53125 
Q 44.140625 76.953125 43.359375 80.859375 
L 52.734375 80.859375 
z
M 37.5 67.96875 
Q 34.375 65.234375 29.484375 59.171875 
Q 24.609375 53.125 18.359375 46.875 
Q 14.84375 50.390625 11.328125 52.34375 
Q 16.015625 55.859375 20.5 60.9375 
Q 25 66.015625 28.515625 72.65625 
Q 31.640625 70.3125 37.5 67.96875 
z
M 75 75 
Q 80.859375 70.3125 85.546875 66.203125 
Q 90.234375 62.109375 95.3125 57.421875 
Q 91.796875 54.6875 88.671875 51.171875 
Q 83.984375 56.640625 79.296875 60.734375 
Q 74.609375 64.84375 69.140625 69.140625 
Q 72.265625 71.875 75 75 
z
" id="SimHei-21155"/>
      </defs>
      <use xlink:href="#SimHei-20248"/>
      <use x="100" xlink:href="#SimHei-21183"/>
      <use x="200" xlink:href="#SimHei-26368"/>
      <use x="300" xlink:href="#SimHei-32456"/>
      <use x="400" xlink:href="#SimHei-24471"/>
      <use x="500" xlink:href="#SimHei-20998"/>
      <use x="600" xlink:href="#SimHei-47"/>
      <use x="650" xlink:href="#SimHei-21155"/>
      <use x="750" xlink:href="#SimHei-21183"/>
      <use x="850" xlink:href="#SimHei-26368"/>
      <use x="950" xlink:href="#SimHei-32456"/>
      <use x="1050" xlink:href="#SimHei-24471"/>
      <use x="1150" xlink:href="#SimHei-20998"/>
     </g>
    </g>
   </g>
   <g id="LineCollection_1">
    <path clip-path="url(#p4d4606cb93)" d="M 396.7 336.7975 
L 396.7 10.6375 
" style="fill:none;stroke:#ff0000;stroke-dasharray:5.55,2.4;stroke-dashoffset:0;stroke-width:1.5;"/>
   </g>
   <g id="LineCollection_2">
    <path clip-path="url(#p4d4606cb93)" d="M 47.95 132.9475 
L 605.95 132.9475 
" style="fill:none;stroke:#ff0000;stroke-dasharray:5.55,2.4;stroke-dashoffset:0;stroke-width:1.5;"/>
   </g>
   <g id="patch_3">
    <path d="M 47.95 336.7975 
L 47.95 10.6375 
" style="fill:none;stroke:#000000;stroke-linecap:square;stroke-linejoin:miter;stroke-width:0.8;"/>
   </g>
   <g id="patch_4">
    <path d="M 605.95 336.7975 
L 605.95 10.6375 
" style="fill:none;stroke:#000000;stroke-linecap:square;stroke-linejoin:miter;stroke-width:0.8;"/>
   </g>
   <g id="patch_5">
    <path d="M 47.95 336.7975 
L 605.95 336.7975 
" style="fill:none;stroke:#000000;stroke-linecap:square;stroke-linejoin:miter;stroke-width:0.8;"/>
   </g>
   <g id="patch_6">
    <path d="M 47.95 10.6375 
L 605.95 10.6375 
" style="fill:none;stroke:#000000;stroke-linecap:square;stroke-linejoin:miter;stroke-width:0.8;"/>
   </g>
   <g id="text_21">
    <!-- 1.44 1.29 -->
    <g transform="translate(548.820144 71.924296)scale(0.1 -0.1)">
     <defs>
      <path id="SimHei-32"/>
      <path d="M 12.5 1.171875 
Q 21.09375 15.625 26.5625 27.34375 
Q 16.796875 25.78125 10.34375 29.875 
Q 3.90625 33.984375 2.53125 41.015625 
Q 1.171875 48.046875 2.734375 53.703125 
Q 4.296875 59.375 7.609375 63.078125 
Q 10.9375 66.796875 15.625 68.359375 
Q 20.3125 69.921875 24.015625 69.921875 
Q 27.734375 69.921875 31.640625 68.359375 
Q 35.546875 66.796875 38.671875 63.671875 
Q 41.796875 60.546875 42.96875 57.21875 
Q 44.140625 53.90625 44.140625 48.625 
Q 44.140625 43.359375 40.234375 35.15625 
Q 36.328125 26.953125 21.09375 1.171875 
z
M 9.765625 50 
Q 10.9375 39.84375 14.640625 36.515625 
Q 18.359375 33.203125 22.65625 33.59375 
Q 26.953125 33.984375 29.484375 35.9375 
Q 32.03125 37.890625 34.375 42.578125 
Q 35.9375 48.4375 35.15625 52.53125 
Q 34.375 56.640625 31.046875 59.375 
Q 27.734375 62.109375 23.828125 62.109375 
Q 21.484375 62.5 17.765625 60.9375 
Q 14.0625 59.375 11.90625 54.6875 
Q 9.765625 50 10.9375 39.84375 
z
" id="SimHei-57"/>
     </defs>
     <use xlink:href="#SimHei-49"/>
     <use x="50" xlink:href="#SimHei-46"/>
     <use x="100" xlink:href="#SimHei-52"/>
     <use x="150" xlink:href="#SimHei-52"/>
     <use x="200" xlink:href="#SimHei-32"/>
     <use x="250" xlink:href="#SimHei-49"/>
     <use x="300" xlink:href="#SimHei-46"/>
     <use x="350" xlink:href="#SimHei-50"/>
     <use x="400" xlink:href="#SimHei-57"/>
    </g>
   </g>
   <g id="text_22">
    <g id="patch_7">
     <path d="M 50.925 39.0995 
L 118.925 39.0995 
L 118.925 12.662 
L 50.925 12.662 
z
" style="opacity:0.5;stroke:#000000;stroke-linejoin:miter;"/>
    </g>
    <!-- ST战略 -->
    <g style="fill:#ffffff;" transform="translate(54.925 32.5995)scale(0.2 -0.2)">
     <defs>
      <path d="M 45.3125 20.703125 
Q 45.3125 11.71875 39.640625 6.4375 
Q 33.984375 1.171875 24.21875 1.171875 
Q 14.453125 1.171875 8.984375 6.640625 
Q 3.515625 12.109375 3.515625 20.3125 
L 3.515625 23.046875 
L 12.5 23.046875 
L 12.5 20.703125 
Q 12.5 14.84375 16.015625 11.71875 
Q 19.53125 8.59375 24.21875 8.59375 
Q 30.46875 8.59375 33.390625 11.90625 
Q 36.328125 15.234375 36.328125 19.921875 
Q 36.328125 23.828125 32.8125 27.140625 
Q 29.296875 30.46875 22.65625 33.203125 
Q 13.28125 36.71875 9.171875 41.015625 
Q 5.078125 45.3125 5.078125 51.171875 
Q 5.078125 59.375 10.734375 64.453125 
Q 16.40625 69.53125 24.21875 69.53125 
Q 34.375 69.53125 38.859375 63.46875 
Q 43.359375 57.421875 43.359375 50.390625 
L 34.375 50.390625 
Q 34.765625 54.6875 32.03125 58.203125 
Q 29.296875 61.71875 24.21875 61.71875 
Q 19.53125 61.71875 16.796875 59.171875 
Q 14.0625 56.640625 14.0625 52.34375 
Q 14.0625 48.828125 16.203125 46.28125 
Q 18.359375 43.75 27.34375 40.234375 
Q 35.9375 36.71875 40.625 31.828125 
Q 45.3125 26.953125 45.3125 20.703125 
z
" id="SimHei-83"/>
      <path d="M 44.53125 61.328125 
L 28.90625 61.328125 
L 28.90625 1.953125 
L 19.921875 1.953125 
L 19.921875 61.328125 
L 4.296875 61.328125 
L 4.296875 68.75 
L 44.53125 68.75 
z
" id="SimHei-84"/>
      <path d="M 25.390625 80.859375 
Q 25 71.875 25 61.71875 
Q 39.0625 61.71875 45.703125 62.5 
L 45.703125 55.078125 
Q 39.0625 55.46875 25.390625 55.46875 
L 25.390625 39.453125 
L 41.40625 39.453125 
Q 41.015625 30.859375 41.015625 21.09375 
Q 41.015625 11.71875 41.40625 0.390625 
L 33.59375 0.390625 
L 33.59375 6.640625 
L 13.671875 6.640625 
L 13.671875 -0.78125 
L 5.859375 -0.78125 
Q 6.25 9.375 6.25 19.53125 
Q 6.25 30.078125 5.859375 39.453125 
L 17.578125 39.453125 
Q 17.578125 71.484375 17.1875 80.859375 
L 25.390625 80.859375 
z
M 86.328125 39.0625 
Q 84.375 35.9375 80.65625 28.703125 
Q 76.953125 21.484375 71.484375 13.671875 
Q 78.125 2.34375 82.421875 0.78125 
Q 86.71875 -0.78125 89.453125 11.328125 
Q 92.578125 7.8125 96.875 5.078125 
Q 91.40625 -7.03125 84.5625 -8 
Q 77.734375 -8.984375 66.40625 8.203125 
Q 61.71875 3.125 56.828125 -0.78125 
Q 51.953125 -4.6875 44.53125 -9.765625 
Q 42.1875 -6.640625 38.671875 -3.515625 
Q 43.359375 -1.5625 50.78125 3.90625 
Q 58.203125 9.375 62.890625 15.234375 
Q 60.9375 19.140625 58.59375 28.3125 
Q 56.25 37.5 55.46875 44.921875 
Q 48.4375 43.75 41.796875 42.1875 
Q 41.015625 46.09375 40.234375 49.21875 
Q 46.09375 50 54.6875 51.5625 
Q 53.90625 68.359375 53.125 81.640625 
Q 57.8125 81.25 61.71875 81.25 
Q 60.9375 69.921875 61.71875 52.734375 
Q 70.3125 53.90625 90.625 58.203125 
Q 90.625 54.6875 91.40625 51.171875 
Q 82.421875 49.609375 62.5 46.09375 
Q 64.453125 30.46875 67.96875 21.484375 
Q 71.875 26.953125 73.828125 32.03125 
Q 75.78125 37.109375 77.734375 42.96875 
Q 82.421875 40.234375 86.328125 39.0625 
z
M 33.984375 13.28125 
L 33.984375 33.203125 
L 13.671875 33.203125 
L 13.671875 13.28125 
z
M 75 76.953125 
Q 82.421875 68.359375 84.765625 66.015625 
Q 81.25 63.671875 78.125 60.546875 
Q 75.78125 64.453125 68.75 72.65625 
Q 71.875 74.609375 75 76.953125 
z
" id="SimHei-25112"/>
      <path d="M 41.40625 70.703125 
Q 41.015625 61.71875 41.015625 54.6875 
L 41.015625 19.53125 
Q 41.015625 12.890625 41.40625 3.515625 
L 34.375 3.515625 
L 34.375 8.59375 
L 13.671875 8.59375 
L 13.671875 1.171875 
L 6.25 1.171875 
Q 7.03125 7.421875 7.03125 15.234375 
L 7.03125 54.6875 
Q 7.03125 63.671875 6.25 70.703125 
L 41.40625 70.703125 
z
M 66.40625 78.515625 
Q 64.0625 76.171875 61.71875 70.703125 
L 87.890625 70.703125 
Q 85.546875 63.28125 81.4375 55.859375 
Q 77.34375 48.4375 72.265625 42.96875 
Q 76.5625 39.0625 83 36.90625 
Q 89.453125 34.765625 95.3125 33.984375 
Q 92.1875 29.6875 91.015625 26.171875 
Q 85.546875 27.34375 78.90625 30.265625 
Q 72.265625 33.203125 67.1875 37.890625 
Q 64.0625 35.546875 58.984375 32.03125 
Q 53.90625 28.515625 46.09375 25 
Q 44.53125 28.90625 41.796875 32.03125 
Q 47.65625 33.984375 52.140625 36.125 
Q 56.640625 38.28125 62.890625 43.359375 
Q 60.546875 46.484375 58.59375 50 
Q 56.640625 53.515625 55.078125 56.640625 
Q 52.734375 52.34375 48.4375 46.09375 
Q 46.875 48.4375 41.796875 50.78125 
Q 47.265625 56.640625 51.359375 65.421875 
Q 55.46875 74.21875 57.03125 82.03125 
Q 61.328125 80.078125 66.40625 78.515625 
z
M 85.9375 26.953125 
Q 85.546875 22.265625 85.546875 16.40625 
L 85.546875 1.171875 
Q 85.546875 -3.90625 85.9375 -9.765625 
L 78.515625 -9.765625 
L 78.515625 -2.34375 
L 58.203125 -2.34375 
L 58.203125 -10.15625 
L 50.78125 -10.15625 
Q 51.171875 -3.515625 51.171875 1.953125 
L 51.171875 16.015625 
Q 51.171875 21.875 50.78125 26.953125 
L 85.9375 26.953125 
z
M 78.515625 4.296875 
L 78.515625 20.703125 
L 58.203125 20.703125 
L 58.203125 4.296875 
z
M 67.96875 48.046875 
Q 73.828125 54.6875 78.125 64.84375 
L 58.984375 64.84375 
Q 62.109375 55.078125 67.96875 48.046875 
z
M 20.703125 14.84375 
L 20.703125 37.109375 
L 13.671875 37.109375 
L 13.671875 14.84375 
z
M 34.375 14.84375 
L 34.375 37.109375 
L 27.34375 37.109375 
L 27.34375 14.84375 
z
M 20.703125 43.359375 
L 20.703125 64.84375 
L 13.671875 64.84375 
L 13.671875 43.359375 
z
M 34.375 43.359375 
L 34.375 64.84375 
L 27.34375 64.84375 
L 27.34375 43.359375 
z
" id="SimHei-30053"/>
     </defs>
     <use xlink:href="#SimHei-83"/>
     <use x="50" xlink:href="#SimHei-84"/>
     <use x="100" xlink:href="#SimHei-25112"/>
     <use x="200" xlink:href="#SimHei-30053"/>
    </g>
   </g>
   <g id="text_23">
    <g id="patch_8">
     <path d="M 50.925 161.4095 
L 118.925 161.4095 
L 118.925 134.972 
L 50.925 134.972 
z
" style="opacity:0.5;stroke:#000000;stroke-linejoin:miter;"/>
    </g>
    <!-- WT战略 -->
    <g style="fill:#ffffff;" transform="translate(54.925 154.9095)scale(0.2 -0.2)">
     <defs>
      <path d="M 48.046875 68.75 
L 39.453125 1.171875 
L 31.640625 1.171875 
L 24.609375 51.171875 
L 23.828125 51.171875 
L 16.796875 1.171875 
L 8.984375 1.171875 
L 0.390625 68.75 
L 8.984375 68.75 
L 13.28125 26.171875 
L 14.0625 26.171875 
L 19.921875 68.75 
L 28.515625 68.75 
L 34.375 26.171875 
L 35.15625 26.171875 
L 39.453125 68.75 
z
" id="SimHei-87"/>
     </defs>
     <use xlink:href="#SimHei-87"/>
     <use x="50" xlink:href="#SimHei-84"/>
     <use x="100" xlink:href="#SimHei-25112"/>
     <use x="200" xlink:href="#SimHei-30053"/>
    </g>
   </g>
   <g id="text_24">
    <g id="patch_9">
     <path d="M 399.675 39.0995 
L 467.675 39.0995 
L 467.675 12.662 
L 399.675 12.662 
z
" style="opacity:0.5;stroke:#000000;stroke-linejoin:miter;"/>
    </g>
    <!-- SO战略 -->
    <g style="fill:#ffffff;" transform="translate(403.675 32.5995)scale(0.2 -0.2)">
     <defs>
      <path d="M 46.09375 35.546875 
Q 46.09375 17.1875 40.421875 9.171875 
Q 34.765625 1.171875 24.609375 1.171875 
Q 14.453125 1.171875 8.59375 9.171875 
Q 2.734375 17.1875 2.734375 35.546875 
Q 2.734375 53.90625 8.59375 61.71875 
Q 14.453125 69.53125 24.609375 69.53125 
Q 34.765625 69.53125 40.421875 61.71875 
Q 46.09375 53.90625 46.09375 35.546875 
z
M 36.71875 35.546875 
Q 36.71875 51.953125 33.203125 57.03125 
Q 29.6875 62.109375 24.609375 62.109375 
Q 19.53125 62.109375 15.8125 57.03125 
Q 12.109375 51.953125 12.109375 35.546875 
Q 12.109375 19.140625 15.8125 13.859375 
Q 19.53125 8.59375 24.609375 8.59375 
Q 29.6875 8.59375 33.203125 13.859375 
Q 36.71875 19.140625 36.71875 35.546875 
z
" id="SimHei-79"/>
     </defs>
     <use xlink:href="#SimHei-83"/>
     <use x="50" xlink:href="#SimHei-79"/>
     <use x="100" xlink:href="#SimHei-25112"/>
     <use x="200" xlink:href="#SimHei-30053"/>
    </g>
   </g>
   <g id="text_25">
    <g id="patch_10">
     <path d="M 399.675 161.4095 
L 477.675 161.4095 
L 477.675 134.972 
L 399.675 134.972 
z
" style="opacity:0.5;stroke:#000000;stroke-linejoin:miter;"/>
    </g>
    <!-- SWO战略 -->
    <g style="fill:#ffffff;" transform="translate(403.675 154.9095)scale(0.2 -0.2)">
     <use xlink:href="#SimHei-83"/>
     <use x="50" xlink:href="#SimHei-87"/>
     <use x="100" xlink:href="#SimHei-79"/>
     <use x="150" xlink:href="#SimHei-25112"/>
     <use x="250" xlink:href="#SimHei-30053"/>
    </g>
   </g>
  </g>
 </g>
 <defs>
  <clipPath id="p4d4606cb93">
   <rect height="326.16" width="558" x="47.95" y="10.6375"/>
  </clipPath>
 </defs>
</svg>
